<svg width="16" height="16" viewBox="0 0 16 16" fill="none" xmlns="http://www.w3.org/2000/svg">
<path d="M10.6667 2V4.66667M5.33334 2V4.66667M2.66667 7.33333H13.3333M7.33334 10H8.00001V12M2.66667 4.66667C2.66667 4.31304 2.80715 3.97391 3.0572 3.72386C3.30724 3.47381 3.64638 3.33333 4.00001 3.33333H12C12.3536 3.33333 12.6928 3.47381 12.9428 3.72386C13.1929 3.97391 13.3333 4.31304 13.3333 4.66667V12.6667C13.3333 13.0203 13.1929 13.3594 12.9428 13.6095C12.6928 13.8595 12.3536 14 12 14H4.00001C3.64638 14 3.30724 13.8595 3.0572 13.6095C2.80715 13.3594 2.66667 13.0203 2.66667 12.6667V4.66667Z" stroke="#161616" stroke-width="1.33333" stroke-linecap="round" stroke-linejoin="round"/>
</svg>
